<svg width="139" height="36" viewBox="0 0 139 36" fill="none" xmlns="http://www.w3.org/2000/svg">
<path d="M0 17.65C0 15.4833 0.405278 13.3667 1.21583 11.3C2.06016 9.2 3.276 7.3 4.86333 5.6C6.45067 3.9 8.37574 2.55 10.6385 1.55C12.9351 0.516667 15.5188 0 18.3895 0C21.8343 0 24.8402 0.716667 27.4069 2.15C29.9737 3.55 31.8819 5.41667 33.1315 7.75L25.5832 13.05C25.1441 11.8833 24.5024 10.9833 23.6581 10.35C22.8475 9.71667 21.9526 9.28333 20.9731 9.05C20.0275 8.78333 19.0987 8.65 18.1868 8.65C16.7684 8.65 15.5357 8.93333 14.4887 9.5C13.4755 10.0333 12.6312 10.75 11.9557 11.65C11.314 12.55 10.8243 13.55 10.4866 14.65C10.1826 15.75 10.0306 16.85 10.0306 17.95C10.0306 19.1833 10.2164 20.3667 10.5879 21.5C10.9594 22.6333 11.4998 23.65 12.209 24.55C12.9182 25.4167 13.7794 26.1 14.7926 26.6C15.8396 27.1 17.0048 27.35 18.2882 27.35C19.2 27.35 20.1288 27.2167 21.0744 26.95C22.0201 26.65 22.8813 26.1833 23.6581 25.55C24.4349 24.9167 25.0259 24.0667 25.4312 23L33.4861 27.75C32.7768 29.4833 31.5948 30.9667 29.9399 32.2C28.285 33.4333 26.4106 34.3833 24.3167 35.05C22.2227 35.6833 20.1457 36 18.0855 36C15.4174 36 12.9689 35.4833 10.7399 34.45C8.54461 33.3833 6.63643 31.9833 5.01531 30.25C3.42797 28.4833 2.19525 26.5167 1.31715 24.35C0.439051 22.15 0 19.9167 0 17.65Z" fill="#34333C"/>
<path d="M52.7067 36C49.836 36 47.3705 35.5333 45.3104 34.6C43.2502 33.6667 41.5616 32.3833 40.2444 30.75C38.961 29.1167 38.0154 27.25 37.4075 25.15C36.7995 23.0167 36.4956 20.7833 36.4956 18.45V0.2H46.3742V18.45C46.3742 19.6167 46.4924 20.7333 46.7289 21.8C46.9653 22.8667 47.3368 23.8167 47.8434 24.65C48.35 25.4833 48.9916 26.15 49.7684 26.65C50.579 27.1167 51.5584 27.35 52.7067 27.35C53.8888 27.35 54.8851 27.1167 55.6956 26.65C56.5062 26.15 57.1479 25.4833 57.6207 24.65C58.1273 23.7833 58.4988 22.8167 58.7352 21.75C58.9716 20.6833 59.0898 19.5833 59.0898 18.45V0.2H68.9685V18.45C68.9685 20.9167 68.6307 23.2167 67.9553 25.35C67.3136 27.4833 66.3342 29.35 65.017 30.95C63.6999 32.55 62.0112 33.8 59.951 34.7C57.9246 35.5667 55.5099 36 52.7067 36Z" fill="#34333C"/>
<path d="M105.249 26.6C105.249 28.7333 104.658 30.4667 103.476 31.8C102.328 33.1333 100.774 34.1167 98.8154 34.75C96.8565 35.3833 94.695 35.7 92.3309 35.7H74.6507V0.2H95.5225C97.2111 0.2 98.6634 0.650001 99.8792 1.55C101.129 2.41667 102.074 3.55 102.716 4.95C103.392 6.35 103.729 7.8 103.729 9.3C103.729 10.9333 103.29 12.5167 102.412 14.05C101.568 15.5833 100.284 16.7333 98.5621 17.5C100.622 18.1 102.243 19.15 103.425 20.65C104.641 22.15 105.249 24.1333 105.249 26.6ZM95.2185 24.6C95.2185 24 95.1003 23.4833 94.8639 23.05C94.6613 22.5833 94.3742 22.2167 94.0027 21.95C93.6312 21.6833 93.1921 21.55 92.6855 21.55H84.5293V27.5H92.3309C92.8713 27.5 93.361 27.3833 93.8 27.15C94.2391 26.9167 94.5768 26.5833 94.8132 26.15C95.0834 25.7167 95.2185 25.2 95.2185 24.6ZM84.5293 8.5V13.95H91.2671C91.7061 13.95 92.1283 13.8833 92.5336 13.75C92.9388 13.5833 93.2766 13.3 93.5468 12.9C93.8169 12.5 93.952 11.9333 93.952 11.2C93.952 10.5333 93.8338 10.0167 93.5974 9.65C93.3948 9.25 93.1077 8.96667 92.7362 8.8C92.3985 8.6 92.0101 8.5 91.571 8.5H84.5293Z" fill="#34333C"/>
<path d="M115.241 0.2L121.674 14.7L128.26 0.2H139L126.588 23.95V35.7H116.76V23.85L104.551 0.2H115.241Z" fill="#34333C"/>
</svg>
