<svg width="50" height="50" viewBox="0 0 50 50" fill="none" xmlns="http://www.w3.org/2000/svg">
<g clip-path="url(#clip0_2_105)">
<path d="M50 27.0911C49.6204 27.7795 49.2956 28.5071 48.8513 29.1504C46.333 32.7966 43.7707 36.4136 41.2537 40.061C39.3518 42.8162 36.7468 44.1602 33.4106 44.1541C28.116 44.1435 22.8219 44.1435 17.5281 44.1541C17.2205 44.1541 17.0398 44.0894 16.8909 43.7878C14.2468 38.4542 11.5951 33.1238 8.93555 27.7966C8.88672 27.6978 8.84033 27.5977 8.78418 27.4817C10.5615 25.8459 12.3572 24.281 14.7314 23.6133C18.407 22.5806 21.7419 23.2324 24.6301 25.7703C24.9356 26.0558 25.2952 26.2772 25.6877 26.4215C26.0802 26.5657 26.4976 26.6299 26.9153 26.6101C29.1882 26.5674 31.4624 26.5796 33.7353 26.6016C35.874 26.6223 37.251 28.5645 36.5527 30.531C36.1426 31.6858 35.0513 32.4341 33.7158 32.4426C31.8323 32.4536 29.9475 32.4365 28.064 32.4426C26.9373 32.45 26.2329 33.4265 26.6174 34.4275C26.8445 35.0159 27.3022 35.3479 27.9248 35.3528C30.2307 35.3699 32.5366 35.3918 34.8425 35.3418C35.78 35.3223 36.5832 34.8865 37.1948 34.1333C39.6899 31.0555 42.1883 27.9805 44.6899 24.9084C45.4602 23.96 46.4185 23.4912 47.6392 23.7366C48.8599 23.9819 49.6252 24.7803 49.9268 26.001C49.9377 26.0437 49.9792 26.0779 50.0061 26.123L50 27.0911Z" fill="url(#paint0_linear_2_105)"/>
<path d="M9.93997 50C9.36868 49.7327 9.04764 49.259 8.77298 48.7061C6.00036 43.1323 3.21878 37.5627 0.428256 31.9971C-0.182096 30.7874 0.0486157 30.1123 1.25101 29.5142C1.73929 29.27 2.22757 29.0137 2.7305 28.7817C4.38577 27.9968 6.01053 28.5376 6.8345 30.1758C9.28405 35.0586 11.7222 39.9479 14.149 44.8438C14.979 46.5161 14.4151 48.1226 12.7464 48.977C12.0725 49.3237 11.3951 49.6631 10.72 50.0049L9.93997 50Z" fill="url(#paint1_linear_2_105)"/>
<path d="M33.0077 11.9968C34.3749 13.5435 35.1366 15.311 35.2648 17.3398C35.3014 17.9221 35.2843 18.5081 35.2818 19.0928C35.2818 20.1731 34.7081 20.7517 33.6327 20.7529C30.5655 20.7529 27.4978 20.7529 24.4298 20.7529C22.7208 20.7529 21.0216 20.7529 19.3175 20.7529C18.2189 20.7529 17.6659 20.1792 17.6378 19.0684C17.5926 17.3472 17.6952 15.6504 18.5204 14.0952C18.911 13.3628 19.3968 12.6731 19.8546 11.9395C23.4471 15.7834 29.3578 15.9202 33.0077 11.9968Z" fill="url(#paint2_linear_2_105)"/>
<path d="M32.3569 6.01317C32.3667 9.26024 29.7275 11.9665 26.5378 11.9787C23.3103 11.9922 20.5649 9.25658 20.5674 6.03026C20.5674 2.82347 23.2883 0.097646 26.4951 0.0891011C29.7019 0.0805562 32.3484 2.76854 32.3569 6.01317Z" fill="url(#paint3_linear_2_105)"/>
</g>
<defs>
<linearGradient id="paint0_linear_2_105" x1="46.8352" y1="43.0766" x2="33.0124" y2="14.1752" gradientUnits="userSpaceOnUse">
<stop stop-color="#4526DC"/>
<stop offset="1" stop-color="#8066FF"/>
</linearGradient>
<linearGradient id="paint1_linear_2_105" x1="13.418" y1="48.8983" x2="-3.81788" y2="36.6188" gradientUnits="userSpaceOnUse">
<stop stop-color="#4526DC"/>
<stop offset="1" stop-color="#8066FF"/>
</linearGradient>
<linearGradient id="paint2_linear_2_105" x1="33.9296" y1="20.301" x2="28.2077" y2="8.08358" gradientUnits="userSpaceOnUse">
<stop stop-color="#4526DC"/>
<stop offset="1" stop-color="#8066FF"/>
</linearGradient>
<linearGradient id="paint3_linear_2_105" x1="31.4501" y1="11.3691" x2="21.4169" y2="0.76715" gradientUnits="userSpaceOnUse">
<stop stop-color="#4526DC"/>
<stop offset="1" stop-color="#8066FF"/>
</linearGradient>
<clipPath id="clip0_2_105">
<rect width="50" height="50" fill="white"/>
</clipPath>
</defs>
</svg>
