<svg width="50" height="50" viewBox="0 0 50 50" fill="none" xmlns="http://www.w3.org/2000/svg">
<g clip-path="url(#clip0_2_88)">
<path d="M50 32.2266V38.1836H26.5039V29.2969C28.5117 29.2969 30.487 29.3945 32.4466 29.2643C33.8789 29.1693 34.9375 29.5378 35.806 30.6758C36.2435 31.25 36.7578 31.8971 37.3854 32.1602C38.013 32.4232 38.7943 32.224 39.5091 32.2266H41.0859V26.3984H8.88672C8.88672 27.3698 8.93359 28.3138 8.87109 29.25C8.82682 29.9154 9.02474 30.3932 9.53125 30.8125C9.9056 31.1282 10.2539 31.4735 10.5729 31.8451C10.6861 31.9788 10.8294 32.0839 10.9909 32.1518C11.1525 32.2197 11.3278 32.2484 11.5026 32.2357C15.3255 32.2201 19.1497 32.2266 22.974 32.2266H23.5091V38.1836H0V29.2969H5.98958V23.4193H23.4922V20.4844C16.0443 19.5417 10.3698 15.5977 5.44011 10.2956C7.00912 8.41276 8.75391 6.85677 10.6302 5.44661C13.6484 3.17838 16.9193 1.41016 20.6211 0.540364C21.6432 0.30078 22.6927 0.177083 23.7305 0H26.2695C26.3776 0.0273437 26.4844 0.0611986 26.5937 0.0820319C27.9154 0.342449 29.2669 0.489584 30.5521 0.863282C35.0651 2.18229 38.8659 4.73047 42.2825 7.89453C43.0768 8.62891 43.8008 9.4401 44.6029 10.2617C39.599 15.6068 33.9258 19.5729 26.5039 20.4831V23.4518H44.0495V32.2266H50ZM25.013 2.92969C23.5644 2.92711 22.1475 3.35419 20.9416 4.1569C19.7357 4.95961 18.7949 6.1019 18.2382 7.43931C17.6815 8.77673 17.5339 10.2492 17.8141 11.6705C18.0943 13.0918 18.7896 14.3981 19.8123 15.4241C20.8349 16.4502 22.1388 17.15 23.5591 17.435C24.9795 17.72 26.4524 17.5774 27.7917 17.0252C29.131 16.473 30.2765 15.5361 31.0833 14.3329C31.89 13.1297 32.3219 11.7143 32.3242 10.2656C32.3239 8.3244 31.5543 6.46241 30.1839 5.08744C28.8136 3.71247 26.9542 2.93658 25.013 2.92969Z" fill="url(#paint0_linear_2_88)"/>
<path d="M0 41.1133H23.5352V50H0V41.1133Z" fill="url(#paint1_linear_2_88)"/>
<path d="M26.4648 50C26.4648 47.0885 26.4648 44.1766 26.4648 41.2643C26.4748 41.2127 26.4896 41.1621 26.5091 41.1133H50V50H26.4648Z" fill="url(#paint2_linear_2_88)"/>
<path d="M25.022 5.85936C25.8919 5.86379 26.7409 6.12636 27.4614 6.61379C28.1819 7.10123 28.7414 7.79158 29.0692 8.59736C29.3969 9.40315 29.4781 10.2881 29.3023 11.14C29.1266 11.992 28.7019 12.7726 28.0821 13.3829C27.4622 13.9933 26.6752 14.4058 25.8206 14.5684C24.966 14.7309 24.0824 14.6361 23.2818 14.296C22.4812 13.9558 21.7996 13.3857 21.3233 12.6577C20.8471 11.9298 20.5977 11.0769 20.6067 10.207C20.6214 9.0468 21.0935 7.93928 21.9203 7.12518C22.7471 6.31107 23.8617 5.85618 25.022 5.85936ZM23.5676 8.81119V11.6758H26.4322V8.81119H23.5676Z" fill="url(#paint3_linear_2_88)"/>
</g>
<defs>
<linearGradient id="paint0_linear_2_88" x1="46.1539" y1="36.2254" x2="15.5958" y2="-6.41669" gradientUnits="userSpaceOnUse">
<stop stop-color="#4526DC"/>
<stop offset="1" stop-color="#8066FF"/>
</linearGradient>
<linearGradient id="paint1_linear_2_88" x1="21.7248" y1="49.5443" x2="16.9961" y2="36.1988" gradientUnits="userSpaceOnUse">
<stop stop-color="#4526DC"/>
<stop offset="1" stop-color="#8066FF"/>
</linearGradient>
<linearGradient id="paint2_linear_2_88" x1="48.1896" y1="49.5443" x2="43.461" y2="36.1988" gradientUnits="userSpaceOnUse">
<stop stop-color="#4526DC"/>
<stop offset="1" stop-color="#8066FF"/>
</linearGradient>
<linearGradient id="paint3_linear_2_88" x1="28.717" y1="14.1952" x2="21.3063" y2="6.29782" gradientUnits="userSpaceOnUse">
<stop stop-color="#4526DC"/>
<stop offset="1" stop-color="#8066FF"/>
</linearGradient>
<clipPath id="clip0_2_88">
<rect width="50" height="50" fill="white"/>
</clipPath>
</defs>
</svg>
