<svg width="50" height="50" viewBox="0 0 50 50" fill="none" xmlns="http://www.w3.org/2000/svg">
<path d="M21.1326 1.28205H23.7785C24.2283 1.34123 24.6781 1.40796 25.1292 1.46085C29.2366 1.97583 32.9232 3.5195 36.034 6.23416C42.2077 11.6182 44.5638 18.4111 43.2283 26.4808C43.1023 27.2766 42.8503 28.0522 42.6664 28.8001C37.2486 28.1856 33.1487 30.1398 30.1677 34.7293C30.3252 33.8013 30.4436 32.9967 30.6062 32.1997C30.6399 32.09 30.6361 31.9722 30.5955 31.8648C30.555 31.7575 30.4798 31.6667 30.3819 31.6067C29.6788 31.0552 28.996 30.4835 28.3458 29.9559C28.6596 29.062 28.9556 28.2247 29.2605 27.3571C29.4283 27.3706 29.5968 27.3706 29.7645 27.3571C30.3806 27.2614 30.8393 27.4742 31.2387 27.9565C31.6166 28.4085 32.0652 28.7976 32.4419 29.1728L34.444 27.1809C33.6212 26.3574 32.7834 25.5062 31.9241 24.6752C31.7887 24.5768 31.6239 24.5271 31.4566 24.5342C30.7662 24.5203 30.0707 24.5342 29.3991 24.5342C29.224 23.7649 29.0552 23.0346 28.8952 22.3018C28.8788 22.2272 28.8905 22.1492 28.9279 22.0827C29.1509 21.7528 30.0505 21.4682 30.4399 21.5967C31.1958 21.8485 31.9442 22.1003 32.7141 22.3521C33.0227 21.4368 33.3125 20.578 33.6174 19.6765C32.3235 19.2383 31.0635 18.8039 29.796 18.396C29.67 18.3544 29.4659 18.4476 29.3261 18.5219C28.7276 18.8619 28.1405 19.2207 27.6768 19.4965L26.1548 17.9855C27.5029 16.1988 27.6995 14.2749 26.5139 12.2439C26.4432 12.0824 26.4338 11.9007 26.4874 11.7327C26.7054 11.0503 26.9523 10.3767 27.198 9.67282L24.5383 8.73855C24.3354 9.28627 24.1603 9.7811 24.0129 10.1651H20.8933C20.7408 9.74962 20.5569 9.25479 20.3666 8.73855L17.7106 9.68163C17.9626 10.388 18.2083 11.0314 18.3998 11.6962C18.4583 11.9251 18.4323 12.1673 18.3267 12.3787C17.751 13.4212 17.509 14.5091 17.7119 15.6939C17.8633 16.5431 18.2313 17.3389 18.7803 18.0044L17.2533 19.5153C16.8916 19.3302 16.5434 19.1198 16.2113 18.8858C15.6078 18.4124 15.0282 18.3532 14.3075 18.6566C13.3437 19.0608 12.3282 19.3466 11.3026 19.6941L12.211 22.3698L14.615 21.5539C14.901 21.4594 15.8938 21.851 16.0135 22.1104C16.0352 22.1688 16.0387 22.2325 16.0236 22.293C15.8598 23.0258 15.6909 23.7573 15.5196 24.5292C14.848 24.5292 14.1576 24.5216 13.4671 24.5292C13.2996 24.5217 13.1345 24.5709 12.9984 24.6689C12.1417 25.5012 11.3038 26.3524 10.4924 27.1657L12.4982 29.1677C13.0022 28.6641 13.5251 28.1252 14.0618 27.5976C14.1609 27.4837 14.293 27.4036 14.4398 27.3685C14.8606 27.3395 15.284 27.3571 15.6267 27.3571C15.9417 28.1869 16.2415 28.9436 16.5086 29.7129C16.5173 29.7866 16.5086 29.8613 16.4832 29.9311C16.4579 30.0008 16.4165 30.0637 16.3625 30.1146C15.7514 30.6346 15.1177 31.1219 14.5028 31.6432C14.397 31.7313 14.2685 31.895 14.2861 32.0083C14.4915 33.2926 14.7233 34.5731 14.9577 35.9116L17.6943 35.4382C17.7091 35.3916 17.718 35.3434 17.7207 35.2946C17.6086 34.6437 17.4801 33.9965 17.3894 33.343C17.3775 33.2568 17.3833 33.169 17.4062 33.0851C17.4292 33.0011 17.4689 32.9227 17.5229 32.8544C17.8077 32.5918 18.1067 32.345 18.4187 32.1153C21.1226 33.9599 23.8 33.97 26.4912 32.1153C26.7432 32.3143 26.9674 32.5308 27.2283 32.7033C27.5168 32.896 27.5936 33.1088 27.513 33.4588C27.3669 34.0972 27.2824 34.7507 27.1678 35.423L29.6537 35.8763C28.757 37.9905 28.4804 40.3158 28.8561 42.5811C28.7301 42.6265 28.6495 42.6642 28.56 42.6907C25.8546 43.5094 23.0114 43.7728 20.2015 43.465C16.4154 43.0495 12.9606 41.7375 9.9078 39.4535C5.47406 36.1357 2.70344 31.7552 1.66021 26.307C1.49768 25.4634 1.40822 24.6047 1.28223 23.7535V21.1094C1.35656 20.5201 1.41578 19.9296 1.50649 19.3466C2.20702 14.8251 4.12844 10.9042 7.33878 7.63682C10.4609 4.45881 14.2193 2.44673 18.6115 1.64719C19.4506 1.49736 20.2935 1.40796 21.1326 1.28205Z" fill="url(#paint0_linear_2_71)"/>
<path d="M40.0856 50C39.1365 49.7209 38.1426 49.5427 37.2472 49.1439C33.6131 47.5241 31.5816 43.6899 32.144 39.6526C32.6653 35.8994 35.7968 32.7544 39.5992 32.1637C40.7828 31.9747 41.9923 32.0244 43.1564 32.3098C44.3204 32.5953 45.4155 33.1107 46.3771 33.8257C47.3387 34.5408 48.1472 35.4409 48.7551 36.4731C49.3629 37.5053 49.7578 38.6487 49.9164 39.8358C49.9359 39.9242 49.9639 40.0106 50 40.0937V41.9628C49.9652 42.0465 49.9368 42.1328 49.9152 42.2208C49.2916 45.959 47.1716 48.4225 43.5787 49.6199C43.0537 49.7956 42.4974 49.8692 41.9575 49.9938L40.0856 50ZM42.899 44.9434L44.9305 42.9136L42.9352 40.9485L44.8869 39.1816L42.813 37.0969L40.885 39.0346L39.1078 37.1891L37.0838 39.214L39.0567 41.1192L37.1362 42.9049L39.1901 44.9596L41.0608 42.9659L42.899 44.9434Z" fill="url(#paint1_linear_2_71)"/>
<path d="M17.9488 25.2439C17.9557 23.6971 18.3647 22.2643 19.2991 20.9988C19.5092 20.7149 19.7489 20.4522 20.0145 20.2147C21.4993 18.8881 23.4417 18.904 24.9001 20.2559C26.1479 21.4193 26.7232 22.8971 26.8813 24.5196C27.0199 25.9629 26.8314 27.3705 26.0494 28.6467C25.2412 29.9653 24.0738 30.7692 22.4268 30.7692C20.7798 30.7692 19.618 29.9573 18.8111 28.6387C18.172 27.5867 17.9446 26.4405 17.9488 25.2439Z" fill="url(#paint2_linear_2_71)"/>
<path d="M22.4223 12.8206C22.8028 12.8179 23.1756 12.9282 23.4934 13.1374C23.8112 13.3467 24.0597 13.6455 24.2076 13.9961C24.3555 14.3467 24.3961 14.7333 24.3242 15.1069C24.2523 15.4806 24.0712 15.8245 23.8038 16.0952C23.5364 16.3658 23.1946 16.5511 22.8219 16.6275C22.4491 16.7039 22.0621 16.668 21.7098 16.5244C21.3574 16.3807 21.0556 16.1358 20.8425 15.8205C20.6294 15.5053 20.5146 15.1339 20.5127 14.7534C20.5111 14.2443 20.711 13.7552 21.0688 13.3931C21.4266 13.0309 21.9132 12.8251 22.4223 12.8206Z" fill="url(#paint3_linear_2_71)"/>
<defs>
<linearGradient id="paint0_linear_2_71" x1="40.3355" y1="41.4201" x2="4.652" y2="3.39351" gradientUnits="userSpaceOnUse">
<stop stop-color="#4526DC"/>
<stop offset="1" stop-color="#8066FF"/>
</linearGradient>
<linearGradient id="paint1_linear_2_71" x1="48.6193" y1="49.0795" x2="33.4809" y2="32.9471" gradientUnits="userSpaceOnUse">
<stop stop-color="#4526DC"/>
<stop offset="1" stop-color="#8066FF"/>
</linearGradient>
<linearGradient id="paint2_linear_2_71" x1="26.2328" y1="30.1775" x2="16.6505" y2="22.2353" gradientUnits="userSpaceOnUse">
<stop stop-color="#4526DC"/>
<stop offset="1" stop-color="#8066FF"/>
</linearGradient>
<linearGradient id="paint3_linear_2_71" x1="24.063" y1="16.4694" x2="20.819" y2="13.0125" gradientUnits="userSpaceOnUse">
<stop stop-color="#4526DC"/>
<stop offset="1" stop-color="#8066FF"/>
</linearGradient>
</defs>
</svg>
