<svg width="24" height="24" viewBox="0 0 24 24" fill="none" xmlns="http://www.w3.org/2000/svg">
<path d="M9.66982 17.7414C9.46981 18.2637 9.2758 18.7859 9.0638 19.2987C9.01365 19.3845 8.93716 19.4501 8.84679 19.4847C7.60475 20.0497 6.37571 19.6789 5.62969 18.4976C5.20868 17.8333 4.70966 17.2965 3.92264 17.1398C3.87363 17.1304 3.82263 17.1022 3.77663 17.1147C3.58262 17.1701 3.39262 17.238 3.20061 17.3017C3.30761 17.451 3.38461 17.6505 3.52562 17.7425C4.23864 18.2052 4.66866 18.8841 4.98767 19.6727C5.47168 20.8655 6.59872 21.5172 7.98076 21.4264C8.31277 21.4044 8.64478 21.3606 9.01779 21.3219C9.01779 22.0583 9.03079 22.7738 9.01179 23.4882C9.00279 23.8015 8.79579 23.9885 8.49378 23.9948C8.30761 24.0001 8.12222 23.9678 7.94776 23.8997C3.38962 22.0332 0.63553 18.6251 0.0725116 13.5029C-0.59951 7.38322 3.47262 1.60929 9.25481 0.308901C14.496 -0.870327 19.6771 1.38995 22.3252 6.00868C26.0863 12.5722 23.2603 20.9929 16.371 23.7483C16.185 23.8224 15.999 23.9018 15.807 23.9572C15.265 24.1118 14.925 23.8412 14.923 23.2532C14.923 22.287 14.916 21.3209 14.932 20.3547C14.949 19.4063 14.838 18.506 14.196 17.779C14.911 17.5952 15.622 17.4657 16.296 17.2286C18.1691 16.5831 19.1831 15.1605 19.4811 13.1645C19.6571 11.9821 19.7111 10.7914 19.1921 9.67065C19.0141 9.28732 18.7521 8.94578 18.5541 8.57081C18.4691 8.42887 18.4338 8.26058 18.4541 8.09452C18.6701 7.22237 18.6181 6.37111 18.3911 5.50732C18.2911 5.12713 18.0991 4.99448 17.7781 5.09684C17.1781 5.28902 16.521 5.41958 15.997 5.76009C15.297 6.21757 14.648 6.31784 13.8369 6.13401C12.3439 5.7956 10.8299 5.89482 9.34181 6.27711C9.22457 6.31121 9.10151 6.31757 8.98162 6.2957C8.86173 6.27384 8.74802 6.22431 8.64878 6.15073C7.90776 5.66295 7.13873 5.22426 6.2487 5.10624C5.68669 5.02999 5.67969 5.0467 5.52169 5.6055C5.2825 6.42065 5.27002 7.29 5.48569 8.11228C5.50179 8.18813 5.50292 8.26662 5.48899 8.34295C5.47506 8.41928 5.44638 8.49183 5.40468 8.55618C4.68993 9.44725 4.32098 10.5858 4.37065 11.7471C4.38726 12.4375 4.46865 13.1246 4.61366 13.7985C5.09067 15.8572 6.44772 16.9842 8.35478 17.4699C8.81979 17.5858 9.2858 17.6589 9.66982 17.7414Z" fill="white"/>
</svg>
