<svg width="70" height="70" viewBox="0 0 70 70" fill="none" xmlns="http://www.w3.org/2000/svg">
<path fill-rule="evenodd" clip-rule="evenodd" d="M35 22.1882C42.4939 22.1882 48.569 28.1251 48.569 35.4487C48.569 42.7723 42.4939 48.7093 35 48.7093C27.5061 48.7093 21.431 42.7723 21.431 35.4487C21.431 28.1251 27.5061 22.1882 35 22.1882ZM35 16.1538C45.9041 16.1538 54.7436 24.7925 54.7436 35.4487C54.7436 46.105 45.9041 54.7436 35 54.7436C24.0959 54.7436 15.2564 46.105 15.2564 35.4487C15.2564 24.7925 24.0959 16.1538 35 16.1538Z" fill="url(#paint0_linear_2_134)"/>
<path fill-rule="evenodd" clip-rule="evenodd" d="M3.04348 70H23.7391V64.6739H5.32609V46.2609H0V66.9565C0 68.6374 1.36261 70 3.04348 70ZM0 23.7391V3.04348C0 1.36261 1.36261 0 3.04348 0H23.7391V5.32609H5.32609V23.7391H0ZM64.6739 23.7391V5.32609H46.2609V0H66.9565C68.6374 0 70 1.36261 70 3.04348V23.7391H64.6739ZM70 46.2609V66.9565C70 68.6374 68.6374 70 66.9565 70H46.2609V64.6739H64.6739V46.2609H70Z" fill="url(#paint1_linear_2_134)"/>
<path d="M43.0769 35.4487C43.0769 30.7401 39.4608 26.9231 35 26.9231C30.5392 26.9231 26.9231 30.7401 26.9231 35.4487C26.9231 40.1573 30.5392 43.9744 35 43.9744C39.4608 43.9744 43.0769 40.1573 43.0769 35.4487Z" fill="url(#paint2_linear_2_134)"/>
<path fill-rule="evenodd" clip-rule="evenodd" d="M62.9119 35.148C60.405 37.4866 56.7624 40.534 52.4196 43.1577C47.0588 46.3965 41.0947 48.7093 35.1536 48.7093C29.2183 48.7093 23.2072 46.4019 17.7767 43.1629C13.3832 40.5424 9.67894 37.497 7.11687 35.1514C12.1735 29.9908 22.0515 22.1882 35.1536 22.1882C48.2661 22.1882 57.9836 30.0094 62.9119 35.148ZM69.0696 32.8025C70.3982 34.3231 70.2852 36.494 68.8502 37.9201C63.612 43.1257 50.2322 54.7436 35.1536 54.7436C20.1081 54.7436 6.53951 43.1766 1.18038 37.9544C-0.296403 36.5154 -0.408598 34.2985 0.963173 32.7643C5.70404 27.4619 17.8437 16.1538 35.1536 16.1538C52.5053 16.1538 64.4511 27.5165 69.0696 32.8025Z" fill="url(#paint3_linear_2_134)"/>
<defs>
<linearGradient id="paint0_linear_2_134" x1="64.6154" y1="66.4102" x2="5.57545" y2="3.4935" gradientUnits="userSpaceOnUse">
<stop stop-color="#4526DC"/>
<stop offset="1" stop-color="#8066FF"/>
</linearGradient>
<linearGradient id="paint1_linear_2_134" x1="64.6154" y1="66.4102" x2="5.57545" y2="3.4935" gradientUnits="userSpaceOnUse">
<stop stop-color="#4526DC"/>
<stop offset="1" stop-color="#8066FF"/>
</linearGradient>
<linearGradient id="paint2_linear_2_134" x1="64.6154" y1="66.4102" x2="5.57545" y2="3.4935" gradientUnits="userSpaceOnUse">
<stop stop-color="#4526DC"/>
<stop offset="1" stop-color="#8066FF"/>
</linearGradient>
<linearGradient id="paint3_linear_2_134" x1="64.6154" y1="66.4102" x2="5.57545" y2="3.4935" gradientUnits="userSpaceOnUse">
<stop stop-color="#4526DC"/>
<stop offset="1" stop-color="#8066FF"/>
</linearGradient>
</defs>
</svg>
