<svg width="30" height="30" viewBox="0 0 30 30" fill="none" xmlns="http://www.w3.org/2000/svg">
<path fill-rule="evenodd" clip-rule="evenodd" d="M10.3562 0.00625C11.1062 0 11.2 0.0125 11.4062 0.14375C11.5312 0.21875 11.6813 0.3625 11.7375 0.46875C11.825 0.63125 11.8438 1.15 11.9 8.96875L12.0938 9.375C12.2125 9.61875 12.4062 9.88125 12.5625 10.025C12.7125 10.1562 12.9937 10.3375 13.1812 10.4312C13.525 10.5938 13.5375 10.5938 14.9937 10.5938C16.4375 10.5938 16.4688 10.5938 16.8062 10.4312C16.9937 10.3438 17.275 10.1625 17.4188 10.025C17.575 9.8875 17.775 9.60625 18.0875 8.96875L18.1187 4.8125C18.1437 1.15 18.1625 0.63125 18.25 0.46875C18.3062 0.3625 18.4562 0.21875 18.5812 0.1375C18.7812 0.0125 18.8875 0 19.6 0C20.3 0 20.4813 0.025 21.0375 0.1875C21.3938 0.29375 21.8313 0.45 22.0063 0.5375C22.1875 0.63125 22.5063 0.81875 22.7125 0.95625C22.9187 1.09375 23.2437 1.36875 23.4312 1.55625C23.625 1.75 23.8937 2.075 24.0312 2.28125C24.175 2.4875 24.3625 2.80625 24.4562 2.9875C24.5437 3.1625 24.6937 3.55625 24.9562 4.40625L24.9937 10.9062L24.7313 10.7812C24.525 10.6875 24.3062 10.65 23.1187 10.625L23.1 7.60625C23.0813 4.65 23.0813 4.5875 22.9438 4.21875C22.8625 4.0125 22.725 3.71875 22.6375 3.5625C22.5438 3.40625 22.3438 3.14375 22.1875 2.975C22.0312 2.80625 21.7312 2.55625 21.525 2.425C21.3188 2.29375 20.9812 2.13125 20.775 2.06875C20.5688 2 20.3062 1.93125 19.9937 1.875V5.3625C19.9937 8.175 19.975 8.925 19.9 9.28125C19.85 9.51875 19.6937 9.95625 19.55 10.25C19.3438 10.6687 19.175 10.8875 18.7812 11.2875C18.3813 11.6813 18.1625 11.85 17.7437 12.0562C17.45 12.2 17.0187 12.3562 16.775 12.4062C16.4688 12.4688 15.9312 12.5 14.9937 12.5C14.0562 12.5 13.5187 12.4688 13.2125 12.4062C12.9688 12.3562 12.5375 12.2 12.2437 12.0562C11.825 11.85 11.6062 11.6813 11.2063 11.2875C10.8125 10.8875 10.6438 10.6687 10.4375 10.25C10.2937 9.95625 10.1375 9.51875 10.0875 9.28125C10.0125 8.925 9.99375 8.175 9.99375 1.875L9.81875 1.9125C9.725 1.93125 9.46875 2 9.24375 2.0625C9.01875 2.13125 8.66875 2.2875 8.4625 2.425C8.25625 2.55625 7.95625 2.80625 7.8 2.975C7.64375 3.14375 7.44375 3.40625 7.35 3.5625C7.2625 3.71875 7.125 4.0125 7.04375 4.21875C6.90625 4.5875 6.90625 4.65 6.86875 10.625L6.19375 10.6375C5.68125 10.65 5.4625 10.6875 4.99375 10.9062L5.03125 4.40625L5.2 3.85625C5.29375 3.55625 5.44375 3.1625 5.53125 2.9875C5.625 2.80625 5.8125 2.4875 5.95625 2.28125C6.09375 2.075 6.3625 1.75 6.55625 1.5625C6.74375 1.36875 7.06875 1.1 7.275 0.9625C7.48125 0.81875 7.8 0.63125 7.975 0.5375C8.15625 0.45 8.58125 0.29375 8.9125 0.19375C9.45 0.03125 9.63125 0.0125 10.35 0.00625H10.3562ZM23.7563 11.875C24.0562 11.875 24.2188 11.9062 24.2812 11.9688C24.3625 12.05 24.375 12.9562 24.375 19.3625C24.375 25.4125 24.3625 26.675 24.2938 26.7812C24.2438 26.85 23.775 27.2875 23.2437 27.7563C22.7125 28.225 22.2188 28.6375 22.1375 28.6812C22.0438 28.725 21.3813 28.75 18 28.75L17.7 29.0688C17.5375 29.25 17.2812 29.4625 17.125 29.55C16.9688 29.6437 16.6313 29.7812 16.375 29.8563C16.025 29.9625 15.75 30 15.3125 30C14.875 30 14.6 29.9625 14.25 29.8563C13.9937 29.7812 13.6562 29.6375 13.5 29.55C13.3438 29.4625 13.1125 29.2812 12.9812 29.1437C12.8438 29.0125 12.6937 28.8188 12.6375 28.7188C12.575 28.6 12.5375 28.3813 12.5375 28.125C12.5375 27.875 12.575 27.65 12.6375 27.5312C12.6875 27.4312 12.8563 27.2188 13.0063 27.075C13.1562 26.925 13.45 26.7188 13.6562 26.6187C13.8625 26.5187 14.2437 26.3937 14.5 26.3375C14.825 26.2687 15.1438 26.25 15.5312 26.2687C15.8375 26.2875 16.275 26.3625 16.5 26.4312C16.725 26.5 17.075 26.6687 17.2812 26.8062C17.4875 26.9438 17.725 27.1562 17.9688 27.5063L21.6562 27.4937L23.1187 26.2188V19.1437C23.1187 12.6625 23.125 12.0625 23.2188 11.975C23.2938 11.9062 23.4438 11.875 23.7563 11.875ZM4.23125 12.5063C4.38125 12.5 4.575 12.5375 4.66875 12.5875C4.76875 12.6312 4.88125 12.7437 4.91875 12.8375C4.98125 12.9625 5 14.4688 5 19.6875C5 25.25 4.9875 26.4062 4.9125 26.55C4.86875 26.6437 4.75625 26.7562 4.6625 26.8C4.575 26.8375 4.39375 26.875 4.2625 26.875C4.1375 26.875 3.8625 26.8312 3.65625 26.775C3.45 26.725 3.1125 26.5875 2.9125 26.4813C2.70625 26.3688 2.3625 26.1125 2.1375 25.9062C1.91875 25.7 1.575 25.2938 1.38125 25C1.1875 24.7062 0.91875 24.2188 0.7875 23.9062C0.6625 23.6 0.4875 23.0938 0.4 22.7812C0.31875 22.475 0.19375 21.875 0.125 21.4562C0.0375 20.9187 0 20.3875 0 19.7062C0 19.0375 0.04375 18.4688 0.125 17.9375C0.19375 17.5063 0.3125 16.9 0.4 16.5938C0.48125 16.2875 0.6625 15.7812 0.7875 15.4688C0.91875 15.1625 1.1875 14.6687 1.38125 14.375C1.575 14.0813 1.91875 13.675 2.1375 13.4688C2.3625 13.2625 2.70625 13.0063 2.9125 12.8938C3.1125 12.7875 3.4375 12.65 3.625 12.6C3.8125 12.55 4.0875 12.5063 4.23125 12.5063ZM2.71875 14.7C2.54375 14.8812 2.3 15.2312 2.175 15.4688C2.05 15.7125 1.85 16.2 1.725 16.5625C1.60625 16.925 1.4625 17.5 1.4 17.8438C1.31875 18.3 1.2875 18.7938 1.2875 19.6875C1.2875 20.5812 1.31875 21.075 1.4 21.5312C1.4625 21.875 1.60625 22.45 1.725 22.8125C1.85 23.175 2.05 23.6625 2.175 23.9062C2.3 24.1437 2.54375 24.4937 2.71875 24.675C2.8875 24.8625 3.16875 25.1 3.34375 25.1938C3.5125 25.2938 3.675 25.375 3.7 25.375C3.73125 25.375 3.75 22.8188 3.75 19.6875C3.75 16.5562 3.73125 14 3.7 14C3.675 14 3.5125 14.0812 3.34375 14.1812C3.16875 14.275 2.8875 14.5125 2.71875 14.7ZM25.7188 12.5C25.8563 12.5 26.1375 12.5438 26.3438 12.6C26.55 12.65 26.8875 12.7875 27.0875 12.8938C27.2937 13.0063 27.6375 13.2625 27.8625 13.4688C28.0812 13.675 28.425 14.0813 28.6187 14.375C28.8125 14.6687 29.0812 15.1625 29.2125 15.4688C29.3375 15.775 29.5125 16.2875 29.6 16.5938C29.6812 16.9 29.8062 17.5 29.875 17.925C29.9625 18.4562 30 18.9875 30 19.675C30 20.3375 29.9562 20.9062 29.875 21.4375C29.8062 21.8687 29.6875 22.475 29.6 22.7812C29.5188 23.0875 29.3375 23.6 29.2125 23.9062C29.0812 24.2125 28.8125 24.7062 28.6187 25C28.425 25.2938 28.0812 25.7 27.8625 25.9062C27.6375 26.1125 27.2937 26.3688 27.0875 26.4813C26.8875 26.5875 26.55 26.725 26.3438 26.775C26.1375 26.8312 25.8625 26.875 25.7313 26.875C25.6063 26.875 25.425 26.8375 25.3375 26.8C25.2437 26.7562 25.1313 26.6437 25.0875 26.55C25.0125 26.4062 25 25.25 25 19.675C25.0063 13.7187 25.0125 12.95 25.1 12.8188C25.1562 12.7375 25.2625 12.6312 25.3312 12.5875C25.4062 12.5437 25.5812 12.5063 25.7188 12.5ZM26.25 25.375C26.4688 25.3125 26.6437 25.2188 26.7812 25.125C26.9188 25.0312 27.1562 24.8187 27.3125 24.6437C27.4688 24.475 27.7 24.1437 27.825 23.9C27.95 23.6625 28.15 23.175 28.2687 22.8125C28.3875 22.45 28.5375 21.875 28.6 21.5312C28.6812 21.0688 28.7125 20.5938 28.7125 19.6875C28.7125 18.7812 28.6812 18.3062 28.6 17.8438C28.5375 17.5 28.3875 16.925 28.2687 16.5625C28.15 16.2 27.95 15.7125 27.825 15.475C27.7 15.2313 27.4688 14.9 27.3125 14.7312C27.1562 14.5562 26.9188 14.3438 26.7812 14.25C26.6437 14.1562 26.4688 14.0625 26.3937 14.0375L26.2625 13.9937L26.25 25.375ZM6.25625 11.875C6.55625 11.875 6.7125 11.9 6.78125 11.9688C6.8625 12.05 6.875 12.9563 6.875 19.375C6.875 25.9375 6.8625 26.6938 6.775 26.7812C6.70625 26.8438 6.54375 26.875 6.24375 26.875C5.94375 26.875 5.78125 26.8438 5.71875 26.7812C5.6375 26.6938 5.625 25.7875 5.61875 19.375C5.6125 12.675 5.625 12.0625 5.71875 11.9688C5.79375 11.9 5.94375 11.875 6.25625 11.875ZM8.125 13.75H21.875V25H8.125V13.75ZM9.375 23.75C11.8313 23.7188 11.8438 23.7125 12.1375 23.5438C12.3125 23.4438 12.5188 23.25 12.6375 23.075C12.7437 22.9125 12.8875 22.6125 12.9563 22.4062C13.0188 22.2 13.0875 21.775 13.1062 21.4688C13.125 21.1375 13.1125 20.725 13.0688 20.4688C13.025 20.225 12.9375 19.9 12.8687 19.75C12.8 19.5938 12.6625 19.3625 12.5562 19.2313L12.375 19C12.6125 18.5375 12.7062 18.275 12.7437 18.125C12.7812 17.9688 12.8062 17.6187 12.8062 17.3438C12.8062 17.0688 12.7688 16.6437 12.7188 16.4062C12.6625 16.1625 12.5437 15.8375 12.45 15.6875C12.3438 15.5188 12.15 15.325 11.9688 15.2188L11.6687 15.0312L9.38125 14.9875L9.375 23.75ZM13.75 23.75H16.875V21.875H15V15H13.75V23.75ZM17.5 23.75H20.625V21.875H18.75V20H20.3125V18.125H18.75V16.875H20.625V15H17.5V23.75ZM11.0625 16.6437C11.3375 16.6687 11.4375 16.7062 11.55 16.8375C11.6687 16.975 11.6875 17.075 11.6875 17.4688C11.6875 17.7375 11.6562 18.0125 11.6062 18.1125C11.5562 18.2062 11.475 18.3 11.4187 18.3312C11.3625 18.3562 11.1625 18.375 10.625 18.375L10.6187 17.5438C10.6125 17.0813 10.6313 16.6875 10.6625 16.6625C10.6938 16.6375 10.875 16.625 11.0625 16.6437ZM10.625 20H11.0312C11.3687 20 11.4688 20.025 11.6 20.1437C11.6875 20.2188 11.7875 20.3937 11.8188 20.5312C11.85 20.6688 11.875 20.925 11.875 21.0938C11.875 21.2687 11.8438 21.5187 11.8 21.65C11.75 21.8062 11.6562 21.9375 11.5312 22.0125C11.4125 22.0875 11.225 22.125 10.625 22.125V20Z" fill="white"/>
</svg>
