<svg width="24" height="24" viewBox="0 0 24 24" fill="none" xmlns="http://www.w3.org/2000/svg">
<path fill-rule="evenodd" clip-rule="evenodd" d="M5.07812 1.13225C4.77847 1.23192 4.329 1.41463 4.07929 1.5392C3.82959 1.66378 3.39676 1.94616 3.12208 2.15378C2.8474 2.36141 2.4229 2.76836 2.18152 3.05074C1.94013 3.34142 1.61552 3.81481 1.46569 4.11379C1.30754 4.41278 1.09113 4.95261 0.991247 5.31804C0.849746 5.81634 0.799805 6.20668 0.799805 6.89601C0.799805 7.51059 0.849746 7.98398 0.941306 8.34941C1.02454 8.64839 1.20766 9.13009 1.34084 9.42907C1.59887 9.9606 1.59887 9.97721 1.50731 10.6167C1.45737 10.9655 1.41575 11.6548 1.41575 12.1532C1.41575 12.6432 1.47401 13.3989 1.54893 13.8308C1.62384 14.2627 1.77366 14.9022 1.89019 15.2427C1.9984 15.5832 2.27308 16.2393 2.48949 16.6961C2.71423 17.1528 3.13041 17.8422 3.42173 18.2325C3.70473 18.6228 4.1875 19.1876 4.48715 19.4866C4.7868 19.7856 5.33615 20.2507 5.70239 20.5247C6.06863 20.7988 6.70954 21.1891 7.1174 21.4051C7.52525 21.6127 8.18281 21.8951 8.57402 22.0362C8.96523 22.1691 9.62279 22.3435 10.0306 22.4266C10.5051 22.5263 11.1793 22.5844 11.8618 22.5844C12.4528 22.5927 13.2269 22.5761 13.5682 22.5595C14.1175 22.5263 14.2757 22.5512 14.8583 22.7754C15.2246 22.9166 15.8405 23.0827 16.2317 23.1408C16.7977 23.2156 17.089 23.2239 17.6883 23.1408C18.0962 23.0827 18.7205 22.9332 19.0617 22.8086C19.403 22.6841 19.9107 22.4349 20.1854 22.2688C20.4601 22.0944 20.8763 21.7954 21.101 21.5961C21.3341 21.4051 21.7003 21.0064 21.925 20.7157C22.1414 20.4251 22.4328 19.9683 22.5659 19.7108C22.6991 19.445 22.8822 18.955 22.9655 18.6311C23.057 18.2989 23.1569 17.784 23.1819 17.485C23.2235 17.1362 23.1902 16.6794 23.107 16.1977C23.0404 15.7908 22.8822 15.2094 22.7657 14.9105C22.5576 14.3872 22.5493 14.354 22.6575 13.7062C22.7158 13.3408 22.7574 12.5518 22.7574 11.9621C22.7491 11.2147 22.6908 10.6167 22.5659 10.0353C22.4744 9.56195 22.2913 8.93077 22.1747 8.62348C22.0582 8.30788 21.8168 7.75974 21.6254 7.39432C21.4423 7.02889 21.0844 6.43092 20.8263 6.0738C20.56 5.71668 20.0938 5.15193 19.7692 4.82803C19.4446 4.50413 18.9452 4.04735 18.6455 3.82311C18.3459 3.59888 17.8049 3.24175 17.4386 3.02582C17.0724 2.81819 16.4897 2.53582 16.1485 2.39463C15.8072 2.24514 15.2246 2.05412 14.8583 1.96277C14.4921 1.87141 13.9344 1.75514 13.6098 1.70531C13.2852 1.66378 12.5777 1.63056 12.0283 1.63056C11.4789 1.63056 10.863 1.66378 10.6549 1.697C10.3386 1.75514 10.2304 1.73853 9.94741 1.57242C9.76429 1.46446 9.33147 1.28175 8.9902 1.16547C8.64893 1.05751 8.09958 0.924626 7.78328 0.874795C7.46699 0.833269 7.06745 0.800049 6.90931 0.800049C6.75116 0.808354 6.39325 0.841574 6.11857 0.8831C5.84389 0.924626 5.37777 1.03259 5.07812 1.13225ZM12.2364 4.73668C12.8107 4.75329 13.5349 4.81973 13.8595 4.88617C14.1841 4.96092 14.6835 5.1021 14.9832 5.21837C15.2828 5.32634 15.7323 5.54227 15.982 5.70838C16.2317 5.86617 16.6396 6.21499 16.8809 6.48906C17.1307 6.76313 17.3887 7.17008 17.4802 7.41923C17.5718 7.65178 17.6467 8.0089 17.6467 8.20822C17.6467 8.39924 17.5801 8.70653 17.4969 8.88924C17.4137 9.07195 17.2139 9.3128 17.0557 9.42907C16.831 9.59517 16.6479 9.64501 16.1901 9.66162C15.6907 9.68653 15.5658 9.66162 15.3161 9.49551C15.158 9.38755 14.9083 9.11348 14.7584 8.88924C14.6169 8.6567 14.3672 8.27466 14.2008 8.04212C13.9677 7.6933 13.7929 7.55211 13.385 7.35279C13.0105 7.17838 12.6775 7.08703 12.2364 7.05381C11.8618 7.02059 11.3957 7.0372 11.0711 7.09533C10.7714 7.15347 10.3469 7.29466 10.1139 7.41923C9.88914 7.54381 9.61447 7.77635 9.51458 7.93415C9.38973 8.10856 9.32314 8.34941 9.32314 8.54042C9.32314 8.75636 9.38973 8.92246 9.5562 9.10517C9.68106 9.25467 9.94741 9.45399 10.1555 9.55365C10.3636 9.65331 10.7215 9.7945 10.9462 9.86924C11.1793 9.94399 12.02 10.1516 12.819 10.3426C13.6181 10.5253 14.592 10.7828 14.9832 10.9074C15.3744 11.0403 15.9321 11.2728 16.2234 11.4306C16.523 11.5884 16.9559 11.8874 17.1806 12.095C17.4137 12.3026 17.7216 12.7013 17.8631 12.9671C18.013 13.2328 18.1711 13.6564 18.221 13.8972C18.271 14.1298 18.3126 14.5616 18.3126 14.8523C18.3126 15.1347 18.2627 15.5583 18.2044 15.7825C18.1378 16.015 17.963 16.4386 17.8049 16.7293C17.6384 17.0449 17.3138 17.4518 17.0058 17.7425C16.6645 18.0581 16.24 18.3488 15.7989 18.5647C15.416 18.7391 14.7917 18.9717 14.4005 19.063C13.9011 19.1959 13.3185 19.254 12.4029 19.2873C11.429 19.3205 10.9213 19.2956 10.3469 19.1959C9.92244 19.1212 9.28152 18.955 8.93193 18.8305C8.57402 18.6976 8.07461 18.465 7.8249 18.2989C7.57519 18.1328 7.14237 17.7591 6.87601 17.4767C6.59301 17.1694 6.27672 16.7127 6.12689 16.4054C5.9521 16.0316 5.86054 15.6994 5.84389 15.3257C5.8106 14.8938 5.84389 14.7111 5.98539 14.4371C6.10192 14.1879 6.26839 14.0301 6.49313 13.9138C6.71509 13.8031 6.99254 13.7477 7.32549 13.7477C7.60016 13.7477 7.93311 13.8059 8.07461 13.8723C8.21611 13.9388 8.41587 14.1215 8.52408 14.271C8.63229 14.4121 8.85702 14.8108 9.02349 15.143C9.18996 15.4669 9.448 15.8822 9.60614 16.0566C9.75597 16.2227 10.0639 16.4635 10.2887 16.5881C10.5384 16.7293 10.9379 16.8455 11.3208 16.9037C11.7619 16.9618 12.1448 16.9618 12.611 16.9037C13.0604 16.8455 13.4433 16.7293 13.8095 16.5466C14.1175 16.3971 14.4505 16.1479 14.6003 15.9652C14.8333 15.6745 14.8583 15.5832 14.8583 15.0932C14.8583 14.653 14.8167 14.4786 14.6752 14.271C14.5587 14.1049 14.2673 13.8889 13.9261 13.7228C13.6098 13.565 12.9272 13.3408 12.4029 13.2162C11.8785 13.0999 11.0378 12.9006 10.5301 12.7843C10.0223 12.6598 9.33147 12.4604 8.9902 12.3276C8.64893 12.203 8.13287 11.9455 7.84987 11.7545C7.55855 11.5718 7.17566 11.2645 6.98422 11.0735C6.8011 10.8742 6.55139 10.5337 6.44319 10.3011C6.33498 10.0769 6.19348 9.6284 6.14354 9.3045C6.06863 8.85602 6.06863 8.59856 6.14354 8.1833C6.19348 7.88432 6.3433 7.43584 6.46816 7.18669C6.58469 6.93754 6.90098 6.52228 7.15069 6.27313C7.43369 5.99075 7.85819 5.70007 8.24108 5.50905C8.58234 5.34295 9.14835 5.12702 9.48961 5.02736C9.83088 4.936 10.3553 4.82803 10.6549 4.7782C10.9546 4.73668 11.6621 4.72007 12.2364 4.73668Z" fill="white"/>
</svg>
