<svg width="50" height="50" viewBox="0 0 50 50" fill="none" xmlns="http://www.w3.org/2000/svg">
<path d="M23.6329 50C22.767 49.8698 21.8959 49.7773 21.0288 49.6172C16.1069 48.7057 11.9845 46.3424 8.64985 42.6289C5.70454 39.349 3.85948 35.5091 3.26834 31.1406C2.29959 23.97 4.3699 17.7435 9.33214 12.4792C9.5239 12.2937 9.72651 12.1198 9.93891 11.9583L8.35298 10.3646L6.44933 12.388L4.39464 10.3385L10.5144 4.21875L12.5222 6.21745L10.4689 8.13672L12.2397 9.89583C20.7518 4.46354 29.2748 4.47049 37.8087 9.91667L39.5157 8.19401L37.5626 6.30729C38.2666 5.60156 38.9363 4.93186 39.5717 4.29818L45.6225 10.3607L43.6082 12.3698L41.6668 10.3503C41.1459 10.8854 40.6655 11.3919 40.1394 11.931C40.2241 12.0195 40.3386 12.1471 40.4584 12.2682C44.9962 16.9076 47.2032 22.4779 46.9428 28.957C46.5327 39.1341 38.978 47.776 28.9663 49.6224C28.1069 49.7812 27.2345 49.875 26.3621 50H23.6329ZM41.1134 27.9271C41.1134 19.026 33.8582 11.7253 25.0092 11.7187C16.1603 11.7122 8.90245 19.0104 8.88683 27.9062C8.8712 36.8021 16.1524 44.1497 25.0144 44.1406C33.8764 44.1315 41.1147 36.8255 41.1134 27.9271Z" fill="url(#paint0_linear_2_97)"/>
<path d="M29.3945 0V3.24219C27.9049 3.13672 26.4505 2.95312 24.9974 2.95312C23.5443 2.95312 22.1237 3.13542 20.6055 3.24349V0H29.3945Z" fill="url(#paint1_linear_2_97)"/>
<path d="M14.7865 19.595L16.6667 21.556L18.7344 19.4961L16.8451 17.681C17.7669 16.4427 21.7214 14.7904 23.5404 14.8568V17.5469H26.4675V14.8685C28.1888 14.7656 31.8203 16.2682 33.1563 17.6224L31.25 19.4089C32.0065 20.1602 32.6823 20.8307 33.3971 21.5456L35.2083 19.5924C36.7727 21.5708 37.7495 23.949 38.0274 26.4557H35.3008V29.3724H38.0208C37.7656 31.8358 36.8266 34.1788 35.3099 36.1367L33.4635 34.2448L31.3802 36.3542L33.181 38.151C32.2943 39.3828 28.2487 41.0885 26.4935 40.9987V38.3099H23.5677V41.0547C21.1061 40.7926 18.7703 39.8336 16.8346 38.2904L18.7878 36.4102L16.6836 34.3151L14.7969 36.2591C13.1836 34.2161 12.2956 31.9622 11.9766 29.4102H14.7422V26.4844H11.9792C12.2444 23.9686 13.2178 21.5797 14.7865 19.595ZM26.4675 26.4661V20.5378H23.5925V29.3646H32.3034V26.4661H26.4675Z" fill="url(#paint2_linear_2_97)"/>
<defs>
<linearGradient id="paint0_linear_2_97" x1="43.5845" y1="47.6522" x2="4.90272" y2="8.09982" gradientUnits="userSpaceOnUse">
<stop stop-color="#4526DC"/>
<stop offset="1" stop-color="#8066FF"/>
</linearGradient>
<linearGradient id="paint1_linear_2_97" x1="28.7185" y1="3.07715" x2="27.0232" y2="-1.81816" gradientUnits="userSpaceOnUse">
<stop stop-color="#4526DC"/>
<stop offset="1" stop-color="#8066FF"/>
</linearGradient>
<linearGradient id="paint2_linear_2_97" x1="36.0235" y1="39.7111" x2="13.9181" y2="16.2883" gradientUnits="userSpaceOnUse">
<stop stop-color="#4526DC"/>
<stop offset="1" stop-color="#8066FF"/>
</linearGradient>
</defs>
</svg>
