<svg width="50" height="50" viewBox="0 0 50 50" fill="none" xmlns="http://www.w3.org/2000/svg">
<g clip-path="url(#clip0_2_80)">
<path d="M29.7256 50H20.3689C20.1931 48.9111 20.0027 47.8235 19.8489 46.7322C19.8025 46.4099 19.5803 46.366 19.3472 46.3062C17.5253 45.835 15.7791 45.1088 14.1604 44.1492C13.7686 43.9148 13.5 43.9258 13.1387 44.2053C12.3464 44.8157 11.5151 45.376 10.74 45.929L4.14819 39.3372C4.73413 38.5132 5.32984 37.6453 5.96216 36.8054C6.17456 36.5234 6.16846 36.3171 5.99634 36.0291C5.11011 34.5288 4.37646 32.9492 3.96753 31.2549C3.77832 30.4687 3.43896 30.1343 2.62475 30.0818C1.77759 30.0269 0.941406 29.8132 0.123535 29.6729V20.3723C1.16235 20.2002 2.16943 20.0207 3.17529 19.873C3.52075 19.823 3.70264 19.6973 3.79541 19.3359C4.2312 17.627 4.83911 15.9814 5.76319 14.4849C6.17212 13.8208 6.12939 13.3716 5.65088 12.7978C5.09179 12.135 4.62793 11.3916 4.16284 10.7373L10.7546 4.1455C11.5737 4.729 12.4417 5.32593 13.2839 5.95581C13.5476 6.15356 13.7417 6.16577 14.0164 6.00098C15.6894 5.00155 17.4986 4.25031 19.3875 3.77075C19.7268 3.6853 19.8403 3.51318 19.8879 3.17505C20.0344 2.1521 20.2261 1.13525 20.4006 0.108643H29.7122C29.8818 1.11938 30.0784 2.10693 30.2004 3.10181C30.2554 3.52539 30.4324 3.69873 30.8352 3.80249C32.6151 4.25217 34.32 4.95864 35.8962 5.89965C36.3455 6.17065 36.6445 6.13525 37.0437 5.82153C37.8042 5.22461 38.6123 4.6875 39.3521 4.16137L45.9438 10.7532C45.3494 11.5881 44.7231 12.4512 44.1201 13.335C44.0261 13.4729 43.9822 13.75 44.0566 13.8818C45.0748 15.6568 45.8601 17.5556 46.3931 19.5312C46.4144 19.6032 46.452 19.6693 46.5031 19.7243C46.5541 19.7794 46.6171 19.8219 46.6872 19.8486C47.7859 20.0366 48.8955 20.1978 50.0002 20.365V29.7241C48.9272 29.8962 47.8567 30.0781 46.7812 30.2332C46.4724 30.2783 46.3967 30.4663 46.332 30.7141C45.8385 32.6159 45.0782 34.4381 44.0737 36.1267C43.9187 36.3855 43.9224 36.5698 44.1067 36.8176C44.7353 37.6623 45.3359 38.5266 45.9158 39.3396L39.324 45.9314C38.4963 45.3406 37.6345 44.7107 36.7495 44.1113C36.6603 44.0607 36.5608 44.031 36.4585 44.0245C36.3561 44.0179 36.2536 44.0347 36.1587 44.0735C34.4257 45.0699 32.5706 45.8368 30.6399 46.355C30.491 46.3953 30.2737 46.5234 30.2517 46.6394C30.0576 47.7563 29.8965 48.8794 29.7256 50ZM25.0869 7.39746C15.425 7.34131 7.46606 15.2673 7.40869 25.0037C7.35254 34.668 15.2773 42.6282 25.0125 42.6855C34.6743 42.7417 42.6333 34.8157 42.6907 25.0793C42.7444 15.4163 34.8196 7.45605 25.0845 7.39868L25.0869 7.39746Z" fill="url(#paint0_linear_2_80)"/>
<path d="M23.5912 39.7339L20.6615 39.1321V34.325C20.6615 33.1226 20.6517 31.9202 20.6676 30.7178C20.678 30.5751 20.655 30.4319 20.6003 30.2996C20.5456 30.1674 20.4608 30.0497 20.3527 29.9561C19.6593 29.3176 19.0184 28.6206 18.3007 28.0127C17.7843 27.5745 17.5756 27.1008 17.6183 26.4258C17.6769 25.5054 17.6329 24.5776 17.6329 23.6182H14.7032V25.7935C14.7032 26.5906 14.6801 27.3877 14.7179 28.1812C14.7374 28.4423 14.8445 28.6892 15.0219 28.8818C15.819 29.6924 16.6564 30.4688 17.4633 31.2659C17.6094 31.4059 17.7011 31.5932 17.722 31.7944C17.7404 33.7109 17.733 35.6274 17.7318 37.5452C17.7275 37.6083 17.7189 37.6711 17.7062 37.7332C13.2592 35.4065 9.60071 29.6765 10.4393 23.2068C10.8711 19.7657 12.5048 16.5879 15.052 14.2343C17.5992 11.8808 20.8961 10.503 24.3605 10.3441C27.8249 10.1852 31.234 11.2555 33.986 13.3661C36.7379 15.4766 38.6556 18.4916 39.4005 21.8787C40.8654 28.4509 37.6085 34.8364 32.3766 37.7478C32.3632 37.6111 32.3424 37.4927 32.3424 37.3816C32.3424 35.5505 32.3314 33.7097 32.3522 31.8738C32.3667 31.642 32.4627 31.4228 32.6232 31.2549C33.4362 30.437 34.2797 29.6484 35.1024 28.8403C35.2245 28.7256 35.3551 28.5547 35.3575 28.4082C35.3759 26.8213 35.3685 25.2344 35.3685 23.6096H32.4449C32.4449 24.7241 32.462 25.8252 32.4315 26.9238C32.4148 27.1857 32.3088 27.4339 32.1312 27.627C31.3463 28.4265 30.515 29.1797 29.7301 29.9793C29.5509 30.1713 29.4447 30.4201 29.4298 30.6824C29.4095 33.3297 29.4095 35.9778 29.4298 38.6267C29.4298 38.9734 29.359 39.1492 28.983 39.2151C28.1761 39.3555 27.3778 39.5471 26.5123 39.7302V39.1504C26.5123 34.5203 26.5123 29.8901 26.5013 25.26C26.5013 24.8621 26.6234 24.7034 26.9896 24.5764C28.3269 24.1092 29.4483 23.1711 30.1443 21.9373C30.8404 20.7036 31.0634 19.2587 30.7718 17.8725C30.4803 16.4863 29.6939 15.2537 28.5598 14.4049C27.4257 13.5562 26.0214 13.1494 24.6092 13.2605C21.8236 13.457 19.5677 15.6006 19.2382 18.4814C19.0905 19.7847 19.3926 21.0993 20.0944 22.2073C20.7962 23.3154 21.8555 24.1504 23.0968 24.574C23.4862 24.707 23.601 24.8877 23.5985 25.293C23.5839 29.906 23.5887 34.5203 23.5887 39.1345L23.5912 39.7339Z" fill="url(#paint1_linear_2_80)"/>
<path d="M25.0489 16.1743C25.6271 16.1746 26.1923 16.3464 26.6728 16.6682C27.1533 16.9899 27.5275 17.447 27.748 17.9816C27.9685 18.5161 28.0254 19.1041 27.9115 19.671C27.7975 20.238 27.5179 20.7583 27.108 21.1662C26.698 21.5741 26.1763 21.8511 25.6088 21.9622C25.0413 22.0733 24.4536 22.0134 23.9201 21.7903C23.3867 21.5671 22.9315 21.1906 22.6122 20.7084C22.2929 20.2263 22.1238 19.6603 22.1265 19.082C22.1367 18.3115 22.4483 17.5756 22.9946 17.0321C23.5408 16.4886 24.2783 16.1806 25.0489 16.1743Z" fill="url(#paint2_linear_2_80)"/>
</g>
<defs>
<linearGradient id="paint0_linear_2_80" x1="46.1636" y1="47.4414" x2="4.08304" y2="2.61091" gradientUnits="userSpaceOnUse">
<stop stop-color="#4526DC"/>
<stop offset="1" stop-color="#8066FF"/>
</linearGradient>
<linearGradient id="paint1_linear_2_80" x1="37.4883" y1="38.2259" x2="12.6886" y2="11.7724" gradientUnits="userSpaceOnUse">
<stop stop-color="#4526DC"/>
<stop offset="1" stop-color="#8066FF"/>
</linearGradient>
<linearGradient id="paint2_linear_2_80" x1="27.5193" y1="21.717" x2="22.5918" y2="16.4659" gradientUnits="userSpaceOnUse">
<stop stop-color="#4526DC"/>
<stop offset="1" stop-color="#8066FF"/>
</linearGradient>
<clipPath id="clip0_2_80">
<rect width="50" height="50" fill="white"/>
</clipPath>
</defs>
</svg>
