<svg width="23" height="19" viewBox="0 0 23 19" fill="none" xmlns="http://www.w3.org/2000/svg">
<path d="M21.752 0.394604C21.6432 0.306462 21.3787 0.226333 21.1299 0.210307C20.8188 0.178255 20.5388 0.21832 20.08 0.362553C19.7378 0.46672 19.0923 0.699095 18.6412 0.875379C18.1901 1.04365 16.9458 1.55648 15.8803 2.01321C14.8148 2.46194 13.1505 3.17509 12.1862 3.59176C11.2218 4.00843 8.46094 5.23441 6.04226 6.31615C3.62358 7.39789 1.5082 8.35143 1.3371 8.43957C1.16601 8.52772 0.909364 8.71201 0.769375 8.85625C0.582725 9.04054 0.520508 9.17676 0.520508 9.36907C0.520508 9.55337 0.582725 9.68158 0.73049 9.80978C0.854924 9.91395 1.15823 10.0742 1.41488 10.1784C1.67152 10.2745 2.44923 10.539 3.1414 10.7553C3.84134 10.9717 4.7357 11.204 5.12456 11.2761C5.71562 11.3723 5.9256 11.3803 6.27557 11.3002C6.50889 11.2521 6.8433 11.1479 7.0144 11.0678C7.1855 10.9957 9.33198 9.55337 11.774 7.87066C15.1648 5.55492 16.2847 4.81773 16.4636 4.81773C16.6191 4.81773 16.7228 4.87115 16.7747 4.97799C16.8291 5.09819 16.8213 5.19434 16.7202 5.36261C16.6502 5.48281 16.1992 5.9716 15.7248 6.45237C15.2581 6.93315 13.8738 8.28733 12.6528 9.46523C11.4318 10.6431 10.3274 11.7649 10.1952 11.9572C10.063 12.1496 9.93082 12.406 9.89971 12.5262C9.87638 12.6544 9.89971 12.8627 9.96193 13.0069C10.0164 13.1512 10.203 13.3996 10.3663 13.5598C10.5374 13.7201 12.0851 14.8339 13.8194 16.0358C15.5537 17.2378 17.148 18.3115 17.358 18.4157C17.6457 18.5519 17.8868 18.6 18.2757 18.6C18.7423 18.6 18.8278 18.5759 19.0456 18.3676C19.1856 18.2474 19.3956 17.9269 19.5122 17.6705C19.6211 17.414 19.7689 16.9253 19.8389 16.5967C19.9011 16.2682 20.1344 14.9701 20.3444 13.7121C20.5621 12.454 20.9121 10.3146 21.1299 8.94439C21.3398 7.57418 21.6198 5.70717 21.7443 4.77767C21.8687 3.84817 22.0165 2.66226 22.0631 2.13341C22.1409 1.34814 22.1409 1.11577 22.0553 0.859353C21.9931 0.683069 21.8609 0.474733 21.752 0.394604Z" fill="white"/>
</svg>
