<svg width="88" height="90" viewBox="0 0 88 90" fill="none" xmlns="http://www.w3.org/2000/svg">
<path d="M50.6797 0C52.1422 0.592383 52.826 1.6998 52.9262 3.25547C53.0176 4.66172 53.1564 6.06797 53.3568 7.44785C53.4095 7.8082 53.7084 8.19317 54.0037 8.44981C55.5558 9.82442 57.1677 9.81387 58.8886 8.68711C59.6621 8.18086 60.5814 7.88906 61.4498 7.5375C62.9932 6.91524 64.3871 7.33535 65.2449 8.76797C67.2371 12.0855 69.1953 15.4189 71.1195 18.7682C71.9281 20.1744 71.5713 21.6721 70.2406 22.6564C68.9697 23.5986 67.6742 24.5057 66.3734 25.3934C65.8918 25.7221 65.5859 26.0578 65.7441 26.6836C65.8105 26.9411 65.8183 27.2102 65.767 27.4711C65.4963 28.7016 66.0271 29.4609 67.0853 30.0762C68.1699 30.7055 69.1666 31.4824 70.1773 32.2418C71.6152 33.3088 71.9351 34.8012 71.0439 36.3428C69.1578 39.5824 67.233 42.7992 65.3504 46.0424C64.5734 47.3818 63.4168 47.8301 61.8629 47.6402V53.1879C62.2408 53.2055 62.5801 53.2371 62.9176 53.2371C68.5426 53.2441 74.1676 53.2482 79.7926 53.2494C82.1621 53.2494 83.2414 54.3217 83.2467 56.6701C83.2467 58.8955 83.266 61.1227 83.2361 63.3498C83.2361 63.9158 83.4119 64.2375 83.897 64.5486C86.4722 66.2027 87.5885 69.1559 86.7992 72.0281C86.0117 74.8705 83.4594 76.834 80.4219 76.9219C77.6094 77.0027 74.9252 75.0762 73.9988 72.327C73.5291 70.9559 73.5241 69.4684 73.9844 68.0942C74.4448 66.72 75.345 65.5357 76.5459 64.7244C77.2349 64.2674 77.4705 63.7893 77.4248 63.0141C77.3658 62.0775 77.3658 61.1381 77.4248 60.2016C77.4846 59.3437 77.249 59.0484 76.3209 59.0555C70.7556 59.0994 65.1887 59.0713 59.6217 59.0678C57.1062 59.0678 56.0181 58.0131 55.9953 55.5082C55.9672 52.5199 55.9584 49.5316 55.9426 46.5434C55.9426 46.2234 55.9426 45.9035 55.9426 45.4307C55.0988 45.8859 54.3447 46.248 53.6451 46.698C53.4553 46.8193 53.3762 47.192 53.3445 47.4627C53.1582 49.0324 53.0228 50.6074 52.8277 52.1754C52.6273 53.7803 51.5586 54.7523 49.9502 54.8314C49.2771 54.8754 48.6018 54.8754 47.9287 54.8314C47.157 54.7664 46.9162 55.0529 46.9215 55.8246C46.9514 60.2772 46.9355 64.7297 46.9355 69.184C46.9541 69.4767 46.9541 69.7702 46.9355 70.0629C46.6877 71.9736 47.1113 73.2586 49.0221 74.4223C52.0437 76.2609 53.1898 79.3811 52.55 82.8914C51.9049 86.4299 49.6883 88.6922 46.2377 89.7469C45.9617 89.8313 45.6875 89.9227 45.4115 90.0088H42.7695C40.4351 89.4955 38.4471 88.4268 37.0039 86.4563C33.824 82.1127 35.3357 75.941 40.1926 73.6137C40.8394 73.3043 41.0838 72.9527 41.0715 72.232C41.0422 66.8145 41.0422 61.3963 41.0715 55.9775C41.0715 55.1074 40.8517 54.7365 39.9394 54.8385C39.3263 54.8859 38.7104 54.8859 38.0972 54.8385C36.4431 54.7664 35.3638 53.7838 35.1687 52.1367C34.993 50.5969 34.8066 49.0553 34.6818 47.5084C34.6396 46.9811 34.4726 46.6488 33.9787 46.4256C33.3758 46.1531 32.8062 45.8104 32.0715 45.4184C32.0715 45.8824 32.0715 46.1936 32.0715 46.5029C32.0586 49.5498 32.0451 52.5967 32.031 55.6436C32.017 57.948 30.8709 59.073 28.5435 59.0748C22.8904 59.0748 17.2373 59.1012 11.5859 59.0748C10.758 59.0748 10.482 59.3332 10.5699 60.1295C10.6105 60.5386 10.6105 60.9508 10.5699 61.36C10.417 63.0088 10.7105 64.2393 12.1976 65.4662C15.2035 67.9447 15.0189 72.5414 12.1502 75.1852C9.34822 77.7674 4.81482 77.4352 2.44881 74.482C-0.0226753 71.39 0.587286 66.9604 3.85506 64.7543C4.53006 64.299 4.77088 63.8438 4.7533 63.0598C4.70584 60.9504 4.73397 58.841 4.73748 56.7316C4.73748 54.3762 5.82733 53.2811 8.16522 53.2793C13.7902 53.2723 19.4152 53.2682 25.0402 53.267H26.1529V47.7123C25.8927 47.6965 25.666 47.6648 25.4498 47.6719C24.2914 47.7053 23.3914 47.2307 22.8131 46.2445C20.8232 42.8906 18.8387 39.5508 16.8945 36.1723C16.0859 34.766 16.448 33.2824 17.7875 32.2893C19.0566 31.3518 20.3457 30.44 21.6547 29.5541C22.1433 29.2219 22.4246 28.8756 22.2822 28.2586C22.2114 28.0026 22.2005 27.7337 22.2506 27.4729C22.5863 26.1598 21.9148 25.4479 20.8654 24.8238C19.816 24.1998 18.8334 23.4369 17.8402 22.7145C16.4076 21.6598 16.0736 20.1498 16.9613 18.617C18.848 15.3791 20.7476 12.1488 22.6601 8.92617C23.6164 7.31602 24.991 6.86953 26.7031 7.59903C28.1849 8.22832 29.6404 8.92266 31.1328 9.52383C31.4457 9.65039 31.8834 9.54668 32.242 9.45527C32.5127 9.38672 32.7271 9.10371 32.9996 9.02812C34.5412 8.60273 34.7803 7.425 34.8277 6.06973C34.8611 5.10645 35.051 4.14844 35.0949 3.18516C35.1652 1.64355 35.9053 0.602931 37.3027 0.00175953L50.6797 0ZM61.5043 41.0695L64.751 35.5482C63.4836 34.6482 62.2689 33.7904 61.0596 32.9273C59.982 32.1574 59.6076 31.1396 59.7201 29.8037C59.866 28.321 59.8713 26.8278 59.7359 25.3441C59.5601 23.7832 60.0471 22.6775 61.318 21.8285C62.4605 21.0674 63.5644 20.2465 64.7492 19.415C63.6541 17.55 62.5906 15.743 61.499 13.8867C60.0928 14.5037 58.7515 15.075 57.4262 15.6814C56.157 16.2615 55.0355 16.0928 53.8807 15.3018C52.7258 14.5107 51.4795 13.7039 50.1682 13.1643C48.5088 12.4822 47.7494 11.3607 47.6685 9.62578C47.6211 8.5711 47.4453 7.53047 47.3609 6.48105C47.324 6.02754 47.1851 5.79727 46.6806 5.80254C44.8947 5.82481 43.1088 5.82481 41.3228 5.80254C40.8219 5.80254 40.6777 6.01348 40.6426 6.47754C40.5529 7.64297 40.3965 8.80488 40.3015 9.97207C40.182 11.4557 39.4736 12.433 38.0832 13.0553C36.7714 13.6278 35.5205 14.3309 34.3496 15.1541C33.0383 16.098 31.792 16.2896 30.34 15.583C29.1095 14.9854 27.8351 14.4844 26.5185 13.9131L23.2965 19.3957C24.5551 20.2904 25.7416 21.1395 26.9351 21.9797C28.083 22.7883 28.4451 23.8676 28.3133 25.2598C28.1814 26.652 28.1111 28.0811 28.2869 29.4592C28.4943 31.0834 28.0373 32.2506 26.7049 33.1506C25.5693 33.9117 24.4707 34.7326 23.3017 35.5605C24.3265 37.2955 25.2881 38.9672 26.3094 40.6002C26.4166 40.776 26.9351 40.834 27.1795 40.7373C28.3467 40.2715 29.4945 39.7512 30.6353 39.2203C31.8763 38.642 32.9679 38.8424 34.1017 39.593C35.3858 40.4541 36.7326 41.218 38.1306 41.8781C39.5088 42.5215 40.2066 43.5076 40.3314 44.9842C40.4281 46.1496 40.5898 47.3115 40.6689 48.477C40.7041 49.0043 40.8781 49.1941 41.409 49.1801C43.1375 49.1566 44.8654 49.1566 46.5928 49.1801C47.1201 49.1801 47.2959 49.0043 47.3451 48.477C47.4594 47.1076 47.6158 45.7418 47.7951 44.3795C47.9392 43.2721 48.6002 42.5602 49.581 42.0469C51.0787 41.2629 52.5693 40.4648 54.0019 39.5561C55.1199 38.8529 56.1886 38.6772 57.3963 39.2397C58.7181 39.8725 60.0664 40.4297 61.5043 41.0695ZM43.9719 84.3855C44.3742 84.398 44.7748 84.3286 45.1494 84.1814C45.524 84.0342 45.8648 83.8124 46.151 83.5295C46.4373 83.2465 46.663 82.9083 46.8145 82.5354C46.966 82.1626 47.04 81.7628 47.0322 81.3603C47.0449 80.9567 46.9769 80.5545 46.8321 80.1775C46.6872 79.8005 46.4686 79.4562 46.1889 79.1649C45.9092 78.8736 45.5741 78.641 45.2033 78.481C44.8325 78.3209 44.4335 78.2365 44.0296 78.2328C43.6258 78.229 43.2252 78.306 42.8515 78.4592C42.4778 78.6123 42.1385 78.8386 41.8535 79.1247C41.5684 79.4108 41.3434 79.7509 41.1916 80.1252C41.0398 80.4995 40.9643 80.9003 40.9695 81.3041C40.9542 81.7062 41.0208 82.1072 41.1653 82.4827C41.3098 82.8583 41.529 83.2005 41.8098 83.4887C42.0906 83.7769 42.4271 84.005 42.7987 84.1592C43.1704 84.3133 43.5695 84.3904 43.9719 84.3855Z" fill="url(#paint0_linear_2_127)"/>
<defs>
<linearGradient id="paint0_linear_2_127" x1="80.4243" y1="85.3929" x2="4.36907" y2="7.84992" gradientUnits="userSpaceOnUse">
<stop stop-color="#4526DC"/>
<stop offset="1" stop-color="#8066FF"/>
</linearGradient>
</defs>
</svg>
