<svg width="29" height="21" viewBox="0 0 29 21" fill="none" xmlns="http://www.w3.org/2000/svg">
<path d="M28.3882 3.27857C28.2232 2.64433 27.9 2.06605 27.4511 1.60161C27.0021 1.13717 26.4432 0.802861 25.8301 0.632143C23.5724 1.91586e-07 14.5 0 14.5 0C14.5 0 5.42763 1.91586e-07 3.16989 0.632143C2.55683 0.802861 1.99785 1.13717 1.54892 1.60161C1.09998 2.06605 0.776836 2.64433 0.611818 3.27857C0.190248 5.66064 -0.0143278 8.07838 0.000779266 10.5C-0.0143278 12.9216 0.190248 15.3394 0.611818 17.7214C0.776836 18.3557 1.09998 18.934 1.54892 19.3984C1.99785 19.8628 2.55683 20.1971 3.16989 20.3679C5.42763 21 14.5 21 14.5 21C14.5 21 23.5724 21 25.8301 20.3679C26.4432 20.1971 27.0021 19.8628 27.4511 19.3984C27.9 18.934 28.2232 18.3557 28.3882 17.7214C28.8097 15.3394 29.0143 12.9216 28.9992 10.5C29.0143 8.07838 28.8097 5.66064 28.3882 3.27857ZM11.6002 15V6L19.1294 10.5L11.6002 15Z" fill="white"/>
</svg>
